<svg version="1.1" x="0px" y="0px" viewBox="349 274.7 1310.8 245.3" style="enable-background:new 349 274.7 1310.8 245.3;" xml:space="preserve" xmlns="http://www.w3.org/2000/svg">
	<path d="M1222,438.9c-2.7,0-5.4,0-8.1-2.7l-210.8-129.7L792.3,436.2c-5.4,2.7-10.8,2.7-13.5,0L573.3,306.5L365.2,436.2L349,411.9
                   l216.2-132.4c5.4-2.7,10.8-2.7,13.5,0l208.1,127l210.8-129.7c5.4-2.7,10.8-2.7,13.5,0L1222,409.2l208.1-129.7
                   c5.4-2.7,10.8-2.7,13.5,0l216.2,135.1l-13.5,21.7l-208.1-129.7l-208.1,129.7C1227.4,436.2,1224.7,438.9,1222,438.9L1222,438.9z">
	</path>
	<path d="M1222,520c-2.7,0-5.4,0-8.1-2.7l-210.8-129.7L792.3,517.3c-5.4,2.7-10.8,2.7-13.5,0L573.3,387.6L362.5,517.3L349,493
                   l216.2-132.4c5.4-2.7,10.8-2.7,13.5,0l205.4,129.7L995,360.5c5.4-2.7,10.8-2.7,13.5,0l210.8,129.7l208.1-129.7
                   c5.4-2.7,10.8-2.7,13.5,0l216.2,135.1l-13.5,21.6l-205.4-129.7l-208.1,129.8C1227.4,517.3,1224.7,520,1222,520L1222,520z">
	</path>
</svg>
